<svg xmlns="http://www.w3.org/2000/svg" aria-hidden="true" style="width: 0; height: 0; position: absolute; overflow: hidden"><defs><symbol id="icon-hero-background" viewBox="0 0 60 32"><path fill="#fff" d="M9.153 27.665c-3.424.361-5.867 2.409-8.086 2.718V.172h58.099v16.602c-1.638-.385-8.052 6.05-11.699 7.346-5.368.877-2.082-3.406-14.641 2.667s-19.635.451-23.673.877z" style="fill: var(--color1, #fff)"></path></symbol><symbol id="icon-logo" viewBox="0 0 85 32"><path fill="#111518" d="M11.933 4.686v12.542H8.385v-4.892H3.547v4.892H-.001V4.686h3.548v4.712h4.838V4.686h3.548zM24.918 12.391c0 .024-.018.305-.054.842h-7.06c.143.502.418.89.824 1.165.418.263.938.394 1.559.394.466 0 .866-.066 1.2-.197a3.51 3.51 0 0 0 1.039-.645l1.792 1.863c-.944 1.051-2.323 1.577-4.139 1.577-1.135 0-2.132-.215-2.992-.645s-1.529-1.027-2.007-1.792c-.466-.764-.699-1.63-.699-2.598 0-.956.227-1.81.681-2.562.466-.764 1.105-1.362 1.917-1.792s1.726-.645 2.741-.645c.968 0 1.846.203 2.634.609a4.43 4.43 0 0 1 1.863 1.738c.466.753.699 1.648.699 2.688zm-5.179-2.616c-.526 0-.968.149-1.326.448-.346.299-.567.705-.663 1.218h3.978c-.096-.514-.323-.92-.681-1.218-.346-.299-.782-.448-1.308-.448zM27.204 3.934h3.404v13.295h-3.404V3.934zM33.538 3.934h3.404v13.295h-3.404V3.934z" style="fill: var(--color2, #111518)"></path><path fill="#ff6b09" d="M3.867 26.282v3.733h-.864v-1.531H1.307v1.531H.443v-3.733h.864v1.472h1.696v-1.472h.864zm4.734 3.04v.693H5.71v-3.733h2.821v.693H6.568v.811h1.733v.672H6.568v.864H8.6zm1.647-3.04h.864v3.029h1.872v.704h-2.736v-3.733zm4.179 0h.864v3.029h1.872v.704h-2.736v-3.733zm4.179 0h.864v3.733h-.864v-3.733zm3.936 3.798c-.295 0-.581-.039-.859-.117a2.045 2.045 0 0 1-.661-.315l.293-.651c.16.117.35.212.571.283s.441.107.661.107c.245 0 .427-.036.544-.107.117-.075.176-.172.176-.293a.269.269 0 0 0-.107-.219.743.743 0 0 0-.267-.144 4.67 4.67 0 0 0-.437-.117c-.284-.068-.517-.135-.699-.203s-.338-.176-.469-.325c-.128-.149-.192-.348-.192-.597 0-.217.059-.412.176-.587.117-.178.293-.318.528-.421.238-.103.528-.155.869-.155.238 0 .471.028.699.085s.427.139.597.245l-.267.656a2.078 2.078 0 0 0-1.035-.293c-.242 0-.421.039-.539.117-.114.078-.171.181-.171.309s.066.224.197.288c.135.06.34.121.613.181.284.068.517.135.699.203s.336.174.464.32c.132.146.197.343.197.592 0 .213-.06.409-.181.587-.117.174-.295.313-.533.416s-.528.155-.869.155zm6.559-3.798v3.733h-.864v-1.531h-1.696v1.531h-.864v-3.733h.864v1.472h1.696v-1.472h.864z" style="fill: var(--color3, #ff6b09)"></path><path fill="#111518" d="M36.305 29.322v.693h-2.891v-3.733h2.821v.693h-1.963v.811h1.733v.672h-1.733v.864h2.032zm5.071-3.04v3.733h-.709l-1.861-2.267v2.267h-.853v-3.733h.715l1.856 2.267v-2.267h.853zm4.366 1.808h.789v1.515c-.203.153-.437.27-.704.352s-.535.123-.805.123c-.388 0-.736-.082-1.045-.245a1.892 1.892 0 0 1-.731-.688c-.174-.295-.261-.628-.261-.997s.087-.7.261-.992c.178-.295.423-.524.736-.688a2.208 2.208 0 0 1 1.056-.251c.327 0 .624.055.891.165s.491.27.672.48l-.555.512a1.282 1.282 0 0 0-.965-.421c-.238 0-.45.05-.635.149s-.329.24-.432.421-.155.389-.155.624c0 .231.052.437.155.619s.245.324.427.427c.185.1.395.149.629.149.249 0 .473-.053.672-.16v-1.093zm2.552-1.808h.864v3.029h1.872v.704h-2.736v-3.733zm4.179 0h.864v3.733h-.864v-3.733zm3.937 3.798c-.295 0-.581-.039-.859-.117a2.045 2.045 0 0 1-.661-.315l.293-.651c.16.117.35.212.571.283s.441.107.661.107c.245 0 .427-.036.544-.107.117-.075.176-.172.176-.293a.269.269 0 0 0-.107-.219.743.743 0 0 0-.267-.144 4.67 4.67 0 0 0-.437-.117c-.284-.068-.517-.135-.699-.203s-.338-.176-.469-.325c-.128-.149-.192-.348-.192-.597 0-.217.059-.412.176-.587.117-.178.293-.318.528-.421.238-.103.528-.155.869-.155.238 0 .471.028.699.085s.427.139.597.245l-.267.656a2.078 2.078 0 0 0-1.035-.293c-.242 0-.421.039-.539.117-.114.078-.171.181-.171.309s.066.224.197.288c.135.06.34.121.613.181.284.068.517.135.699.203s.336.174.464.32c.132.146.197.343.197.592 0 .213-.06.409-.181.587-.117.174-.295.313-.533.416s-.528.155-.869.155zm6.558-3.798v3.733h-.864v-1.531h-1.696v1.531h-.864v-3.733h.864v1.472h1.696v-1.472h.864zM70.715 14.487v2.741h-10.07V4.685h9.837v2.741h-6.325V9.54h5.572v2.652h-5.572v2.294h6.558zM85.333 4.686v12.543h-2.921l-5.537-6.683v6.683h-3.476V4.686h2.921l5.537 6.683V4.686h3.476z" style="fill: var(--color2, #111518)"></path><path fill="#ff6b09" d="M55.627 10.72c-.183-.41-.436-.814-.805-1.281-.932-1.172-1.216-3.784-1.219-3.809a.315.315 0 0 0-.218-.266.32.32 0 0 0-.335.091c-1.112 1.244-.644 3.164-.392 3.931.07.21.145.457.199.708.411 2.027-.382 2.945-.569 3.129-.18.05-.303.025-.417-.097-.392-.429-.521-1.836-.338-3.668a3.772 3.772 0 0 0-.025-1.021c-.386-2.252-1.803-3.697-2.164-4.204-.992-1.466-1.093-3.906-1.096-3.928a.315.315 0 0 0-.493-.247c-1.655 1.125-1.513 3.834-1.282 5.347.054.351.158.708.338 1.159.641 1.613-.126 3.696-.133 3.715s-.013.034-.016.053c-.098.514-.262.821-.445.821a.224.224 0 0 1-.06-.009c-.224-.047-.341-.285-.344-.492-.013-2.672-2.694-3.571-2.723-3.58a.314.314 0 0 0-.335.094.309.309 0 0 0-.044.345c.032.066.133.354.063 1.372-.06.915-.228 1.82-.496 2.688a13.111 13.111 0 0 0-.531 4.144c.491 5.335 8.163 6.27 12.716 3.264a4.608 4.608 0 0 0 1.206-1.118c1.68-2.318.692-5.466-.044-7.139zm-11.671 5.097a.314.314 0 0 1-.297.329h-.019a.315.315 0 0 1-.316-.294c-.028-.457-.022-.937.013-1.457a.318.318 0 0 1 .338-.291.316.316 0 0 1 .294.335c-.035.495-.041.946-.013 1.378zm.155-2.776a.314.314 0 0 1-.313.276c-.013 0-.025 0-.041-.003a.316.316 0 0 1-.275-.348l.152-1.209a.32.32 0 0 1 .354-.273.315.315 0 0 1 .275.351l-.152 1.206zM53.491 4.286a.314.314 0 0 1-.264-.357c.02-.127.134-.779.444-1.106.119-.126.319-.133.447-.014s.134.316.014.443c-.131.139-.243.536-.28.773a.315.315 0 0 1-.36.261zM41.976 5.846c-.06-.233-.211-.617-.355-.743-.131-.114-.144-.312-.029-.442s.314-.144.446-.029c.34.296.518.933.55 1.058a.313.313 0 0 1-.227.381.318.318 0 0 1-.385-.225z" style="fill: var(--color3, #ff6b09)"></path></symbol><symbol id="icon-hero-financial-guarantee" viewBox="0 0 28 32"><path d="M.542 13.742c0 .357-.542.357-.542 0C0 6.154 6.154 0 13.742 0c7.591 0 13.742 6.154 13.742 13.742 0 .357-.539.357-.539 0 0-5.129-8.428-5.132-8.428 0 0 .357-.555.357-.555 0 0-5.116-8.441-5.116-8.441 0 0 .357-.555.357-.555 0 0-5.106-8.425-5.142-8.425 0zm8.473-1.992c.146-2.952.61-5.599 1.285-7.62.539-1.606 1.22-2.826 1.992-3.51C6.498 1.253 1.807 5.645.759 11.342c1.995-2.878 6.602-2.647 8.256.409zm8.906-.133c-.149-2.839-.6-5.379-1.249-7.316-1.674-5.012-4.185-5.012-5.859 0-.649 1.937-1.097 4.477-1.249 7.316 1.8-3.059 6.556-3.059 8.357 0zm8.804-.276A13.205 13.205 0 0 0 15.192.619c.775.684 1.453 1.904 1.992 3.51.675 2.021 1.139 4.668 1.285 7.62 1.664-3.072 6.284-3.254 8.256-.409zM11.938 20.03v-2.791c-.503.334-.899.85-.899 1.48 0 .613.402 1.019.899 1.311zm.542.866c-.964-.441-1.979-.957-1.979-2.177 0-1.259.957-1.888 1.979-2.359v4.536zM15.546 24.24v2.822c.509-.337.908-.856.908-1.486 0-.62-.409-1.038-.908-1.337zm-.539-.869c.967.448 1.989.98 1.989 2.206 0 1.262-.963 1.891-1.989 2.358v-4.564z"></path><path d="M15.546 14.063c2.219.513 4.5 2.174 4.5 4.655 0 2.125-3.591 2.047-3.591 0 0-.633-.399-1.152-.908-1.486v3.971c2.054.672 4.506 1.875 4.506 4.373 0 2.485-2.281 4.143-4.506 4.652-.01 2.365-3.601 2.362-3.607-.003-1.265-.292-2.365-.882-3.16-1.664-.834-.824-1.327-1.859-1.327-2.985 0-2.093 3.588-2.093 3.588 0 0 .626.396 1.142.899 1.476v-3.968c-2.037-.659-4.503-1.898-4.503-4.373 0-2.485 2.281-4.143 4.503-4.652.01-2.365 3.601-2.362 3.607.003zm-3.066.007v.431c-2.112.419-4.506 1.771-4.506 4.211 0 2.346 2.628 3.397 4.506 3.977v5.243c-1.015-.464-1.979-1.09-1.979-2.355 0-1.382-2.511-1.382-2.511 0 0 .976.435 1.878 1.168 2.599.931.921 2.06 1.359 3.322 1.609v.435c0 1.664 2.527 1.664 2.527 0v-.431c2.118-.422 4.503-1.775 4.503-4.211 0-2.368-2.621-3.387-4.503-3.981v-5.239c1.019.464 1.989 1.09 1.989 2.362 0 1.346 2.508 1.401 2.508 0 0-2.436-2.381-3.792-4.496-4.214v-.435c0-1.664-2.527-1.664-2.527 0z"></path></symbol><symbol id="icon-hero-modern-teaching" viewBox="0 0 33 32"><path d="M30.175-.128H14.429a1.861 1.861 0 0 0-1.859 1.859v6.518L.872 13.159a.38.38 0 0 0-.049.678l1.492.893v9.515A1.719 1.719 0 0 0 .98 25.919v.917c0 .21.171.381.381.381h2.671c.21 0 .381-.171.381-.381v-.917a1.72 1.72 0 0 0-1.336-1.673v-9.06l1.18.706c-.036.272-.005-.474-.017 4.43 0 1.612 4.129 2.476 8.33 2.525v7.425a1.858 1.858 0 0 0 1.858 1.856h15.746a1.859 1.859 0 0 0 1.857-1.857c0 .051-.002-1.573 0-28.54a1.87 1.87 0 0 0-1.856-1.859zM3.652 25.918v.536H1.743v-.536a.955.955 0 1 1 1.909 0zm26.523 5.446H14.429a1.096 1.096 0 0 1-1.096-1.094v-2.574h17.935v2.575c0 .597-.497 1.092-1.092 1.092zm1.092-4.429H13.332v-4.086c2.051-.023 8.335-.475 8.335-2.527-.002-3.081.005-4.33-.01-4.436l3.421-2.049a.382.382 0 0 0-.049-.678l-11.698-4.91V5.067h17.935v21.868zm-18.316-9.143c-2.113 0-6.182.273-7.949 1.427.011-3.53-.122-3.3.312-3.6 1.098-.809 4.238-1.373 7.637-1.373 1.482 0 7.954.408 7.954 1.778v3.195c-1.784-1.165-5.832-1.428-7.954-1.428zm.382-16.061c0-.604.491-1.095 1.095-1.095h15.746c.604 0 1.093.498 1.093 1.095v2.574H13.332V1.731zm-.382 7.184 11.09 4.655-2.748 1.644c-1.461-1.449-6.294-1.73-8.342-1.73-2.051 0-6.884.282-8.342 1.73L1.86 13.569l11.091-4.655zM5.002 20.321c0-.617 2.73-1.767 7.949-1.767 5.222 0 7.954 1.151 7.954 1.767s-2.732 1.768-7.954 1.768c-5.219 0-7.949-1.151-7.949-1.768z"></path><path d="M22.301 28.271a1.261 1.261 0 0 0 0 2.52 1.261 1.261 0 0 0 0-2.52zm0 1.759a.499.499 0 1 1 .002-.998.499.499 0 0 1-.002.998zM23.754 2.09h-2.906v.762h2.906V2.09z"></path></symbol><symbol id="icon-hero-upe-program" viewBox="0 0 27 32"><path d="M-.103 31.759h26.785c.133-3.055-.086-8.122-1.964-10.535l-.068-.087-4.104-2.06c.089-.301.133-.576.151-.778a1.43 1.43 0 0 0-.1-.678c-.677-1.62-2.11-2.472-2.898-2.836.24-.484.395-1.003.47-1.534.446-.126.805-.479.923-.951l.479-1.946a1.314 1.314 0 0 0-.151-1.002 1.292 1.292 0 0 0-.294-.334c1.351-3.068-.911-5.96-1.035-6.113C15.641.256 12.547.752 12.383.781c-4.466.935-6.19 4.358-5.217 8.372a1.317 1.317 0 0 0-.302 1.2l.481 1.948c.117.468.473.82.916.948a5.014 5.014 0 0 0 1.152 2.559v1.543c-6.409 3.282-2.348 1.188-7.484 3.786-.01.048-2.41 2.599-2.053 10.159l.022.462zm25.854-.97h-4.408v-1.852l2.916-6.675c1.461 2.424 1.515 7.053 1.493 8.526zm-6.016-12.573c-.17 1.954-1.242 1.364-1.903 2.869-.52-.572-.677-1.258-.537-1.993.253-1.349-.57-1.749-.367-3.166l.031-.032v-.005c.018-.02.18-.213.227-.274 1.744.76 2.584 2.174 2.55 2.6zm-9.356-1.536a4.963 4.963 0 0 0 5.575.074c.112 1.114.547 1.337.393 2.157a3.536 3.536 0 0 0-.054.45l-3.002 3.384-3.838-4.327.926-.484V16.68zm-1.207-4.14V7.368c.467-.864 1.104-1.491 1.896-1.866 2.12 1.2 4.56 2.99 6.197 4.791-.002 2.294.006 2.301-.009 2.489l-.001.012c-.128 2.083-1.841 3.811-4.038 3.811-2.136 0-3.909-1.677-4.037-3.831a2.578 2.578 0 0 1-.008-.233zm-.598 6.346 4.716 5.317 3.166-3.569c.072.208.174.405.29.595l-3.456 4.322-5.154-6.446.438-.22zm9.656-7.127v-1.498l.36-.413c.02.758.102-.137-.36 1.911zM12.562 1.734c.192.012 2.765-.391 4.799 1.804.08.1 1.736 2.234 1.071 4.567-.228-1.038-.625-2.369-1.252-3.004l-.686.683c.619.627 1.026 2.537 1.181 3.527-2.84-2.972-6.504-4.853-6.555-4.885-.184.114-1.734.409-2.86 2.598l-.054.105v1.607l-.142.002c-.716-3.454.655-6.198 4.497-7.004zm-4.6 8.002.244.987v1.038l-.405-1.639c-.059-.244.122-.337.161-.386zm-.71 9.814 6.038 7.551 4.085-5.109c.444.398.658.454 1.6.939l-.318-1.078c-.081-.274.239-.713.431-.914.43-.233.789-.566 1.057-.977l3.333 1.674-3.101 7.1v2.055H6.201v-2.055l-3.103-7.099 4.153-2.085zM2.32 22.265l2.916 6.673v1.852H.828c-.022-1.473.033-6.099 1.492-8.524z"></path></symbol><symbol id="icon-mobile-menu-close" viewBox="0 0 32 32"><path stroke-width="3.765" d="M1.882 29.168 29.168 1.882M29.168 29.168 1.882 1.882"></path></symbol><symbol id="icon-mobile-menu-open" viewBox="0 0 48 32"><path stroke-width="4.571" d="M0 2.286h46.857M0 16h46.857M0 29.714h46.857"></path></symbol><symbol id="icon-open-book" viewBox="0 0 42 32"><path d="M19.086 3.95H7.395v.875h11.691V3.95zM19.086 7.213h-9.94v.875h9.94v-.875zM19.086 10.478H7.395v.875h11.691v-.875zM19.086 13.742h-9.94v.875h9.94v-.875zM19.086 17.005H7.395v.875h11.691v-.875zM19.086 20.27h-9.94v.875h9.94v-.875zM35.134 3.95H23.443v.875h11.691V3.95zM33.384 7.213h-9.94v.875h9.94v-.875zM35.134 10.478H23.443v.875h11.691v-.875zM33.384 13.742h-9.94v.875h9.94v-.875zM35.134 17.005H23.443v.875h11.691v-.875zM33.384 20.27h-9.94v.875h9.94v-.875z"></path><path d="M39.356 2.953h-1.605V.543a.438.438 0 0 0-.438-.438H24.229c-1.277 0-2.384.69-2.964 1.724A3.387 3.387 0 0 0 18.3.105H5.216a.438.438 0 0 0-.438.438v2.41H3.173a.438.438 0 0 0-.438.438v23.495c0 .242.196.438.438.438h36.182a.438.438 0 0 0 .438-.438V3.391a.438.438 0 0 0-.438-.438zM24.229.98h12.646v23.443h-13.58c-.602 0-1.204.254-1.593.583V3.501A2.513 2.513 0 0 1 24.229.98zM5.654.98H18.3a2.506 2.506 0 0 1 2.522 2.425c.001.019.002.078.005.096v21.503a2.56 2.56 0 0 0-1.587-.581H5.654V.98zM3.611 3.829h1.167v21.032c0 .242.196.438.438.438h14.023c.667 0 1.312.438 1.518 1.149H3.61V3.828zm35.307 22.619H21.772a1.582 1.582 0 0 1 1.524-1.149h14.018a.438.438 0 0 0 .438-.438V3.829h1.167v22.62z"></path></symbol><symbol id="icon-preparation-upe" viewBox="0 0 31 32"><path d="m30.151 4.961-.001-.002a.32.32 0 0 0-.06-.09L25.284.063a.258.258 0 0 0-.041-.033l-.009-.006c-.012-.007-.024-.014-.036-.019L25.187 0a.277.277 0 0 0-.099-.02H3.912a.284.284 0 0 0-.284.284v29.311c0 .019.002.037.006.056l.007.023.009.03.014.026.013.023c.01.014.021.028.033.04l.003.003 2.165 2.164c.111.111.29.111.402 0l1.964-1.963 1.964 1.963c.055.056.128.083.201.083s.145-.027.201-.083l1.963-1.963 1.965 1.963a.284.284 0 0 0 .402 0l1.963-1.963 1.963 1.963a.283.283 0 0 0 .401 0l1.965-1.963 1.964 1.963c.055.056.128.083.201.083s.145-.027.201-.083l1.963-1.963 1.965 1.963a.283.283 0 0 0 .401 0l2.165-2.164.011-.014.024-.029c.007-.009.011-.02.016-.03.003-.007.007-.012.009-.019.006-.013.009-.026.012-.039l.005-.013a.286.286 0 0 0 .006-.058V5.071a.296.296 0 0 0-.023-.109zM25.367.949l3.836 3.835h-3.836V.949zm4.237 28.507-1.88 1.88-1.965-1.963a.283.283 0 0 0-.401 0l-1.963 1.963-1.964-1.963a.284.284 0 0 0-.402 0l-1.965 1.963-1.963-1.962v-.001a.284.284 0 0 0-.402 0l-1.963 1.963-1.965-1.963a.284.284 0 0 0-.402 0l-1.963 1.963-1.964-1.963a.284.284 0 0 0-.402 0l-1.965 1.963-1.88-1.88V.547h20.603v4.522c0 .157.127.284.284.284h4.521v24.103z"></path><path d="M6.314 3.234h9.303a.284.284 0 1 0 0-.568H6.314a.284.284 0 1 0 0 .568zM6.314 4.991h14.919a.284.284 0 1 0 0-.568H6.314a.284.284 0 1 0 0 .568zM6.03 6.568v9.199c0 .157.127.284.284.284h21.172a.284.284 0 0 0 .284-.284V6.568a.284.284 0 0 0-.284-.284H6.314a.284.284 0 0 0-.284.284zm6.278.284h14.893v2.445H12.308V6.852zm0 3.013h14.893v2.444H12.308V9.865zm0 3.012h14.893v2.605H12.308v-2.605zm-5.71-6.025h5.142v2.445H6.598V6.852zm0 3.013h5.142v2.444H6.598V9.865zm0 3.012h5.142v2.605H6.598v-2.605zM27.486 17.329H6.314a.284.284 0 0 0-.284.284v9.198a.284.284 0 1 0 .568 0v-2.889h5.142v2.889a.284.284 0 1 0 .568 0v-2.889h14.893v2.889a.284.284 0 1 0 .568 0v-9.198a.282.282 0 0 0-.283-.284zM11.74 23.354H6.598v-2.443h5.142v2.443zm0-3.012H6.598v-2.444h5.142v2.444zm15.461 3.012H12.308v-2.443h14.893v2.443zm0-3.012H12.308v-2.444h14.893v2.444zM2.281-.021a.284.284 0 0 0-.284.284v29.311a.284.284 0 1 0 .568 0V.263a.284.284 0 0 0-.284-.284zM.718-.021a.284.284 0 0 0-.284.284v29.311a.284.284 0 1 0 .568 0V.263a.284.284 0 0 0-.284-.284z"></path></symbol><symbol id="icon-psycho-support" viewBox="0 0 33 32"><path d="M1.993 12.558v2.831a.5.5 0 0 0 .189.39 11.099 11.099 0 0 0 6.837 2.362c.74 0 1.482-.077 2.206-.224a12.01 12.01 0 0 0 4.89 1.032c1.707 0 3.351-.349 4.89-1.032 3.091.624 6.384-.046 9.042-2.138a.495.495 0 0 0 .189-.39v-2.831a1.2 1.2 0 0 0-.575-1.027l-3.867-2.176c.846-1.073 1.476-2.602 1.586-3.913.321-2.256-1.518-4.646-4.166-4.646a4.208 4.208 0 0 0-2.948 1.227c-.027.027-.058.049-.084.076-.024.025-.043.054-.067.08-.016.017-.029.036-.044.053C19.314.852 17.86 0 16.147 0c-.166 0-.33.011-.492.028-.01-.001-.018-.006-.028-.006-.092 0-.287.024-.391.054-.015.004-.026.015-.041.021a4.485 4.485 0 0 0-3.013 2.156A4.176 4.176 0 0 0 9.003.796c-3.908 0-5.642 4.612-2.557 8.581l-3.903 2.167a1.192 1.192 0 0 0-.553 1.014zm19.003 4.27c-.084.041-.167.085-.251.123l-.002.001a11.007 11.007 0 0 1-4.627 1.006 11.023 11.023 0 0 1-6.674-2.228v-2.87c0-.098.047-.184.102-.221l4.542-2.524c.565.48 1.287.832 2.035.832.721 0 1.499-.357 2.052-.843l4.487 2.52c.083.053.13.139.13.237v2.87c-.571.429-1.173.795-1.794 1.098zm8.158-4.446a.201.201 0 0 1 .092.176v2.587a9.986 9.986 0 0 1-6.737 1.98c.369-.23.771-.516 1.083-.76a.496.496 0 0 0 .19-.39v-3.114c0-.435-.218-.835-.61-1.087l-2.383-1.339.58-.321c.703.573 1.307.744 1.848.744.663 0 1.36-.325 1.878-.759l4.06 2.284zM23.216 1.788c1.38 0 2.593.902 3.021 2.142A3.703 3.703 0 0 1 24 2.788a.494.494 0 0 0-.788.084 3.684 3.684 0 0 1-2.548 1.76v-.003a4.786 4.786 0 0 0-.162-1.329c.563-.902 1.609-1.513 2.713-1.513zm-2.66 3.856a4.642 4.642 0 0 0 3.164-1.762 4.684 4.684 0 0 0 2.702 1.056c-.007 1.792-1.471 4.927-3.206 4.927-1.337 0-2.479-1.912-2.905-3.238a8.15 8.15 0 0 0 .245-.983zm.101 3.729-.886.491-.895-.502c.332-.413.636-.893.896-1.413.25.526.55 1.01.884 1.425zM19.32 6.465c-.478 1.427-1.705 3.49-3.199 3.49-1.742 0-3.226-2.864-3.509-4.696.075-.019 2.43.126 4.049-2.001.822.688 1.932 1.143 3.011 1.188.013.647-.144 1.406-.352 2.018zM16.15.992c2.78 0 3.309 2.392 3.352 2.442a4.123 4.123 0 0 1-2.563-1.276.497.497 0 0 0-.789.087 4.073 4.073 0 0 1-3.58 2.022c.136-1.822 1.596-3.274 3.58-3.274zm-3.689 6.946c.257.515.563 1.006.913 1.438l-.875.487-.907-.51a7.76 7.76 0 0 0 .87-1.415zm-3.455-6.15c1.125 0 2.155.571 2.729 1.514-.029.1-.106.498-.117.548a3.675 3.675 0 0 1-1.821-1.062.496.496 0 0 0-.788.086 3.712 3.712 0 0 1-3.177 1.815c.158-1.627 1.518-2.9 3.174-2.9zm-3.13 3.89a4.711 4.711 0 0 0 3.643-1.796 4.629 4.629 0 0 0 2.055.961c.029.575.179 1.273.35 1.789-.274.84-.799 1.841-1.451 2.505l-.014.01c-.408.43-.988.719-1.444.719-1.594 0-2.841-2.508-3.14-4.188zm-2.891 6.88c0-.075.033-.139.067-.162l4.116-2.284c.247.206.304.229.353.265.484.322.928.482 1.534.482.645 0 1.232-.273 1.749-.694.029-.023.06-.045.088-.068l.587.33-2.446 1.361a1.269 1.269 0 0 0-.584 1.071v3.114c0 .152.07.296.19.39.317.249.727.539 1.083.761a10.024 10.024 0 0 1-6.737-1.98v-2.587z"></path><path d="M31.259 20.781a2.06 2.06 0 0 0-2.007-.11l-6.119 2.956a2.11 2.11 0 0 0-2.107-2.071l-3.509.001c-1.73-1.504-3.941-2.425-5.952-2.474-1.983-.047-3.763-.06-4.593-.064v-1.002H0v11.517h6.972v-1.379C8.884 29.252 13.911 32 16.297 32c.054 0 .107-.001.158-.004 4.196-.235 14.091-7.198 14.743-7.661a2.08 2.08 0 0 0 1.034-1.796c0-.719-.364-1.376-.973-1.758zM5.98 28.543H.992V19.01H5.98v9.533zm24.707-5.058a.296.296 0 0 0-.044.028c-.102.073-10.281 7.271-14.244 7.494a2.354 2.354 0 0 1-.121.003c-2.092 0-7.194-2.753-9.307-4.001v-6.997c.827.004 2.597.017 4.569.064 1.837.044 3.876.921 5.456 2.346l.141.128 3.887-.001c.617 0 1.119.502 1.119 1.119s-.502 1.119-1.119 1.119h-7.142v.992h7.142c.684 0 1.288-.333 1.674-.839l6.984-3.373c.343-.167.725-.146 1.049.057s.508.537.508.918c0 .391-.212.753-.553.945zM16.612 12.158h-.992v.92h.992v-.92zM16.612 13.992h-.992v.92h.992v-.92zM16.612 15.826h-.992v.92h.992v-.92z"></path></symbol><symbol id="icon-spoken-english" viewBox="0 0 39 32"><path d="M3.048 29.453h12.23a3.738 3.738 0 0 0 3.38 2.116h.772c1.465 0 2.761-.83 3.381-2.116h12.237a2.289 2.289 0 0 0 2.286-2.286V5.262a2.289 2.289 0 0 0-2.286-2.286h-1.234V1.955c0-.84-.684-1.524-1.524-1.524H5.799c-.84 0-1.524.683-1.524 1.524v1.021H3.048A2.289 2.289 0 0 0 .762 5.262v21.905a2.289 2.289 0 0 0 2.286 2.286zm29.24-4.701H19.81V7.047c2.884.377 5.121 2.845 5.121 5.831v.687l-.181-.04a.759.759 0 0 0-.908.58l-1.213 5.519c-.09.41.17.816.58.907l2.621.578a1.946 1.946 0 0 0 2.319-1.492l.702-3.192a1.954 1.954 0 0 0-1.484-2.324l-.912-.201v-1.023c0-3.827-2.917-6.986-6.644-7.37V1.956h12.48l-.001 22.796zm-7.122-9.575 1.871.412a.422.422 0 0 1 .325.508l-.702 3.191a.45.45 0 0 1-.507.331l-1.874-.413.886-4.03zM5.798 1.956h12.487v3.55c-3.731.381-6.652 3.541-6.652 7.371v1.022l-.914.202a1.935 1.935 0 0 0-1.222.854c-.28.439-.373.961-.26 1.468l.7 3.188a1.96 1.96 0 0 0 2.325 1.495l2.61-.577a.762.762 0 0 0 .58-.907l-1.213-5.519c-.043-.198-.164-.37-.334-.478s-.378-.144-.574-.102l-.174.038v-.686c0-2.988 2.24-5.458 5.128-5.832v17.706H5.798V1.953zm7.118 13.221.887 4.029-1.863.411a.433.433 0 0 1-.512-.328l-.702-3.196a.42.42 0 0 1 .323-.506l1.867-.412zM2.286 5.262c0-.42.341-.762.762-.762h1.227v20.252c0 .84.684 1.524 1.524 1.524H32.29c.84 0 1.524-.683 1.524-1.524V4.5h1.234c.42 0 .762.342.762.762v21.905c0 .42-.342.762-.762.762H22.294a.76.76 0 0 0-.728.538 2.22 2.22 0 0 1-2.135 1.577h-.772a2.229 2.229 0 0 1-2.138-1.586.762.762 0 0 0-.725-.529H3.049a.763.763 0 0 1-.762-.762V5.262z"></path></symbol></defs></svg>